<?xml version="1.0" encoding="UTF-8" standalone="no"?>
<!-- Created with Inkscape (http://www.inkscape.org/) -->

<svg
   inkscape:version="1.2.1 (9c6d41e410, 2022-07-14)"
   id="svg542"
   version="1.1"
   viewBox="0 0 1920 1080"
   height="1080"
   width="1920"
   sodipodi:docname="Background-Waves.svg"
   inkscape:export-filename="Background-Waves.png"
   inkscape:export-xdpi="96"
   inkscape:export-ydpi="96"
   xmlns:inkscape="http://www.inkscape.org/namespaces/inkscape"
   xmlns:sodipodi="http://sodipodi.sourceforge.net/DTD/sodipodi-0.dtd"
   xmlns="http://www.w3.org/2000/svg"
   xmlns:svg="http://www.w3.org/2000/svg">
  <sodipodi:namedview
     id="namedview544"
     pagecolor="#505050"
     bordercolor="#eeeeee"
     borderopacity="1"
     inkscape:showpageshadow="0"
     inkscape:pageopacity="0"
     inkscape:pagecheckerboard="0"
     inkscape:deskcolor="#505050"
     inkscape:document-units="px"
     showgrid="false"
     inkscape:zoom="0.28395309"
     inkscape:cx="905.07908"
     inkscape:cy="778.29758"
     inkscape:window-width="1366"
     inkscape:window-height="699"
     inkscape:window-x="0"
     inkscape:window-y="0"
     inkscape:window-maximized="1"
     inkscape:current-layer="layer1" />
  <defs
     id="defs539">
    <inkscape:path-effect
       effect="lattice2"
       gridpoint0="0.4441756,0"
       gridpoint1="1920.4442,0"
       gridpoint2="0.4441756,1080.0001"
       gridpoint3="1920,1080"
       gridpoint4="508.56918,2.8945313e-05"
       gridpoint5="1362.3192,334.375"
       gridpoint6="421.06918,983.1251"
       gridpoint7="1640.4442,1170.6251"
       gridpoint8x9="804.19419,340.625"
       gridpoint10x11="1503.842,762.63651"
       gridpoint12="0,304.37503"
       gridpoint13="1920.4442,270.00002"
       gridpoint14="0.4441756,810.00007"
       gridpoint15="2151.6942,775.62507"
       gridpoint16="655.44418,695.00003"
       gridpoint17="1499.8192,279.37503"
       gridpoint18="430.44418,794.37507"
       gridpoint19="1410.625,513.12507"
       gridpoint20x21="1135.4442,0"
       gridpoint22x23="894.81919,772.50007"
       gridpoint24x26="0.4441756,540.00005"
       gridpoint25x27="1920,213.15432"
       gridpoint28x30="805.44418,721.25"
       gridpoint29x31="1318.5692,386.87505"
       gridpoint32x33x34x35="1226.0692,680.62505"
       id="path-effect5638"
       is_visible="true"
       lpeversion="1"
       horizontal_mirror="false"
       vertical_mirror="false"
       perimetral="false"
       live_update="true" />
  </defs>
  <g
     inkscape:label="Desing"
     inkscape:groupmode="layer"
     id="layer1"
     style="fill:#000000">
    <rect
       style="opacity:1;fill:#1a1a1a;fill-opacity:1;stroke:none;stroke-opacity:1"
       id="rect838"
       width="1920"
       height="1080"
       x="0"
       y="2.8945313e-05"
       inkscape:label="Background"
       sodipodi:insensitive="true" />
    <g
       id="g5634"
       inkscape:path-effect="#path-effect5638"
       style="fill:#3c0000;fill-opacity:1">
      <path
         id="rect4158"
         style="opacity:1;fill:#3c0000;fill-opacity:1;stroke:#a00012;stroke-width:0"
         d="M 0.4441756,0 C 87.202021,0.00144822 161.93987,36.775161 237.45813,99.934493 311.47495,161.83811 382.04509,245.7629 458.70732,320.39934 c 78.27584,76.20741 158.10975,137.6873 255.0745,170.42896 96.48159,32.57853 199.49606,32.77212 313.50868,4.45777 112.8344,-28.02177 228.291,-82.08253 338.7808,-144.00996 106.5514,-59.71998 214.586,-130.56555 294.7624,-183.53744 97.6115,-64.49105 135.0647,-89.739418 192.8125,-126.412694 C 1897.3555,13.568044 1920.4442,0 1920.4442,0 c 0.01,3.6005201 0.032,7.2983925 0.109,11.227997 0.069,3.533097 0.1616,6.148209 0.1616,6.148209 C 1819.8119,78.04375 1727.6334,142.53373 1598.4147,226.52929 1477.4507,305.15902 1352.1457,381.60653 1228.223,436.10473 1103.4294,490.98596 989.90707,519.24814 883.41259,516.10062 777.08992,512.95818 687.33423,478.8241 604.30694,425.75879 523.08235,373.84562 450.29554,304.7581 384.59801,243.56958 314.85458,178.61284 261.02265,130.35132 201.44652,91.900959 144.31504,55.028371 97.290227,38.001456 59.152516,29.408687 22.528577,21.156985 0.41404541,21.307943 0.41404541,21.307943 0.42372956,14.233098 0.43376975,7.1306988 0.4441756,0 Z"
         inkscape:original-d="M 0.4441756,0 H 1920.4442 V 18.976151 H 0.4441756 Z" />
      <path
         id="rect5148"
         style="opacity:1;fill:#3c0000;fill-opacity:1;stroke:#a00012;stroke-width:0"
         d="M 0.36526485,59.158145 C 93.720577,71.542895 180.4279,111.05584 271.41537,169.77283 c 89.05851,57.47216 176.70924,129.90706 266.5413,192.30046 91.55678,63.5913 180.35233,113.02564 279.24951,137.39385 98.43295,24.25384 196.92002,20.91709 301.28352,-6.44494 103.2746,-27.07657 205.4924,-76.03452 302.809,-131.60083 93.379,-53.31798 189.4799,-117.28469 261.0714,-165.00081 84.7401,-56.47963 125.6264,-83.80249 176.5555,-115.998346 41.1695,-26.026169 63.6036,-39.095714 63.6036,-39.095714 0.2831,2.082242 0.6067,4.216894 1.0109,6.429065 0.3642,1.993889 0.6868,3.440026 0.6868,3.440026 C 1829.1665,106.8461 1740.1152,168.85029 1628.4787,243.19331 1521.8029,314.23278 1413.5363,383.22187 1304.4879,433.7279 1194.642,484.60328 1091.9163,513.03769 989.79844,514.89801 887.87419,516.7548 795.20614,491.97463 703.98355,450.01757 614.56268,408.8892 528.70065,352.01172 449.40928,299.27956 364.60166,242.87885 300.18855,200.19506 228.87639,162.48723 160.97416,126.58248 107.59209,106.85059 64.911595,94.725495 24.12699,83.139008 0.34096167,80.015133 0.34096167,80.015133 0.34873043,73.088521 0.35682828,66.13644 0.36526485,59.158145 Z"
         inkscape:original-d="M 0.4441756,53.051197 H 1920.4442 V 72.027348 H 0.4441756 Z" />
      <path
         id="rect5150"
         style="opacity:1;fill:#3c0000;fill-opacity:1;stroke:#a00012;stroke-width:0"
         d="M 0.30223875,117.08696 C 102.45094,140.23957 202.95374,182.04599 311.5371,236.68668 c 106.0228,53.35218 212.33752,115.22099 316.16181,165.83449 105.58807,51.47332 203.5599,88.77588 303.64607,103.72867 99.71842,14.89785 192.40592,6.05663 285.64802,-22.80507 92.2066,-28.54123 179.7849,-75.20096 262.8293,-126.61036 76.8927,-47.60109 165.028,-109.42183 225.7932,-151.04232 71.0894,-48.69192 117.4776,-79.02918 161.3549,-105.868685 39.1658,-23.957482 61.4251,-36.061277 61.4251,-36.061277 0.5163,1.034681 1.0905,2.081209 1.7675,3.133785 0.6108,0.949712 1.1252,1.615589 1.1252,1.615589 -91.8539,49.831278 -176.308,108.253128 -271.2434,175.028548 -92.192,64.84579 -182.5193,128.9314 -275.4864,177.93528 -93.76,49.42187 -184.2757,80.34351 -281.1167,88.76569 -96.579,8.3994 -191.61079,-6.33362 -291.07362,-37.20065 C 714.5056,442.76999 615.43315,397.57099 521.4284,352.72699 416.39098,302.61996 348.76266,268.54177 260.32879,229.90917 180.18151,194.8966 120.12248,173.12243 71.822669,157.87833 26.133153,143.45807 0.28331062,137.52797 0.28331062,137.52797 c 0.006004,-6.79003 0.0123102,-13.60346 0.0189281,-20.44101 z"
         inkscape:original-d="M 0.4441756,106.10239 H 1920.4442 v 18.97615 H 0.4441756 Z" />
      <path
         id="rect5152"
         style="opacity:1;fill:#3c0000;fill-opacity:1;stroke:#a00012;stroke-width:0"
         d="M 0.25383377,173.88425 C 112.91108,206.24127 226.87054,249.32301 354.55334,300.20252 c 124.27226,49.52046 249.06675,101.30422 367.39345,140.7813 119.79073,39.96552 226.89277,65.31314 327.70891,70.43334 100.6076,5.1096 186.8373,-10.41009 268.3529,-42.32532 80.4828,-31.5109 152.9559,-77.81758 221.4217,-126.54604 61.6421,-43.87186 128.908,-96.35232 190.5501,-140.22417 60.7414,-43.37427 107.0818,-72.69722 147.3826,-95.86531 37.608,-21.62008 60.0309,-32.409715 60.0309,-32.409715 1.2464,0.707051 3.8552,1.755676 3.8552,1.755676 -91.1105,43.771259 -169.0388,97.048669 -248.9883,158.044429 -77.9391,59.46196 -150.6001,120.57763 -227.1116,169.54679 -77.5055,49.60535 -155.2708,84.37906 -246.5088,100.1697 -90.8853,15.72958 -187.8615,11.20647 -295.44703,-8.87231 C 816.89767,474.85283 704.90727,440.58065 595.85436,403.21621 497.63168,369.5625 372.01763,322.58698 293.31673,293.85541 198.52282,259.24872 135.46732,237.32371 79.221899,218.8792 28.329955,202.19025 0.23982874,193.94427 0.23982874,193.94427 c 0.00439,-6.66512 0.009055,-13.35155 0.014005,-20.06002 z"
         inkscape:original-d="M 0.4441756,159.15359 H 1920.4442 v 18.97616 H 0.4441756 Z" />
      <path
         id="rect5154"
         style="opacity:1;fill:#3c0000;fill-opacity:1;stroke:#a00012;stroke-width:0"
         d="M 0.21878641,229.64779 C 118.62885,267.8166 256.17817,314.72416 397.61057,359.96132 c 142.44173,45.55999 285.16626,87.96518 417.87527,116.89604 133.71074,29.14925 249.57676,42.97963 350.95946,38.38397 101.3449,-4.59394 180.9727,-27.23965 250.9165,-62.97841 68.863,-35.1865 126.5279,-82.32367 180.8123,-129.20517 60.0928,-51.89778 100.2245,-88.83999 156.7266,-131.28482 52.0341,-39.08849 96.5487,-65.84184 134.7637,-85.86692 36.4123,-19.080376 59.2098,-28.317098 59.2098,-28.317098 1.5037,0.225812 4.5849,0.626613 4.5849,0.626613 -91.5923,37.294735 -162.8007,84.841735 -229.1141,140.903355 -64.7053,54.70207 -119.9826,113.55661 -180.9367,163.41493 -61.8921,50.62548 -127.1568,89.77208 -212.9403,113.08646 -85.3454,23.19533 -183.9854,28.55958 -299.4244,18.73191 C 916.63005,504.61181 792.2022,480.39759 668.5325,450.20619 546.83732,420.49681 425.10044,384.72629 325.6838,354.10837 230.11358,324.67504 137.05541,294.31388 86.532409,277.76632 30.522956,259.4218 0.20925253,249.36177 0.20925253,249.36177 c 0.002926,-6.55186 0.006101,-13.12294 0.009534,-19.71398 z"
         inkscape:original-d="M 0.4441756,212.20479 H 1920.4442 v 18.97615 H 0.4441756 Z" />
      <path
         id="rect5156"
         style="opacity:1;fill:#3c0000;fill-opacity:1;stroke:#a00012;stroke-width:0"
         d="M 0.19583315,284.47534 C 127.82071,327.76831 279.52698,374.63077 438.27167,415.71859 c 159.44291,41.26852 319.45874,75.01479 465.60271,93.9746 146.94912,19.06427 270.97342,22.09554 372.99592,8.33295 102.1276,-13.77676 175.4673,-43.34557 234.6247,-83.00722 58.0267,-38.90354 101.746,-87.33311 142.8734,-132.67484 44.0681,-48.58378 78.9513,-86.29966 125.4698,-123.13896 44.4356,-35.18984 86.7596,-58.77769 123.577,-75.78928 35.4989,-16.402382 58.7701,-23.948544 58.7701,-23.948544 1.6831,0.295606 5.0814,1.100809 5.0814,1.100809 -92.6312,30.527805 -157.5835,72.098355 -211.6801,123.522365 -52.9181,50.3037 -91.8783,106.92415 -138.6693,157.86206 -47.566,51.78167 -101.2951,95.11457 -182.1431,125.53762 -80.3519,30.23637 -180.5509,44.74942 -303.4195,44.43659 C 1009.3489,531.6161 873.21223,516.60526 735.95472,493.31056 599.32804,470.12292 467.33043,439.70993 355.60417,410.54435 244.40305,381.51585 153.35451,353.75959 93.264308,334.60423 32.543471,315.24783 0.19031846,303.87828 0.19031846,303.87828 c 0.001614,-6.45027 0.003449,-12.91767 0.005515,-19.40294 z"
         inkscape:original-d="M 0.4441756,265.25598 H 1920.4442 v 18.97615 H 0.4441756 Z" />
      <path
         id="rect5158"
         style="opacity:1;fill:#3c0000;fill-opacity:1;stroke:#a00012;stroke-width:0"
         d="M 0.18371048,338.46473 C 136.67941,385.31112 299.56525,430.69145 474.51601,467.34437 c 174.72406,36.60542 350.5297,62.16625 508.92761,71.85363 159.13248,9.7323 290.60898,2.93551 393.49318,-19.09113 103.0947,-22.07169 170.8842,-57.81035 220.5309,-100.92465 48.5431,-42.15597 79.6088,-91.61074 109.1238,-135.33202 31.4303,-46.55857 58.3657,-82.27572 97.6888,-114.87749 37.8515,-31.38163 78.0601,-51.54431 113.8542,-65.58529 34.7915,-13.647702 58.5404,-19.458146 58.5404,-19.458146 1.7847,0.829152 5.3444,2.916882 5.3444,2.916882 -93.8,23.693224 -153.1989,59.155294 -196.6737,105.877614 -43.3795,46.61983 -66.6186,99.02058 -101.6541,151.48708 -35.0361,52.46745 -78.7827,99.24049 -155.5074,135.86208 -76.2075,36.37471 -178.0332,58.97025 -307.7701,67.26351 C 1091.4548,555.58 944.64713,548.9635 795.25936,532.29764 646.00895,515.6471 503.42081,490.04609 381.58259,463.1335 260.04618,436.28757 163.99937,409.26237 99.014672,389.48372 34.250644,369.77223 0.18176303,357.5916 0.18176303,357.5916 c 4.5156e-4,-6.36033 0.001098,-12.7357 0.001947,-19.12687 z"
         inkscape:original-d="M 0.4441756,318.30719 H 1920.4442 v 18.97615 H 0.4441756 Z" />
      <path
         id="rect5160"
         style="opacity:1;fill:#3c0000;fill-opacity:1;stroke:#a00012;stroke-width:0"
         d="M 0.18115488,391.71369 C 143.2675,440.07002 316.41055,483.22255 504.73932,514.82316 c 187.77673,31.50798 377.34134,49.24002 546.55808,50.41057 169.9441,1.17558 308.1439,-14.28992 412.2031,-43.38345 104.3421,-29.17262 167.6787,-69.8932 209.4557,-115.51368 40.7986,-44.55205 60.9406,-94.11622 80.7285,-135.84342 21.0388,-44.36498 40.5329,-77.21942 74.0554,-105.76757 32.2883,-27.49705 70.5968,-44.12428 105.5807,-55.2449 34.2159,-10.876484 58.3691,-14.989092 58.3691,-14.989092 1.0046,0.966208 2.1495,2.138752 3.367,3.491962 1.1174,1.241929 2.0065,2.32149 2.0065,2.32149 -94.7821,17.02811 -149.4114,46.30243 -184.0108,88.00433 -34.4989,41.58064 -46.2674,91.17708 -70.8731,143.16547 -24.6983,52.18421 -60.427,101.21208 -134.0806,142.716 -73.1465,41.21813 -176.7939,70.58334 -312.7386,86.43168 -135.2114,15.76287 -291.3745,16.76342 -451.12918,6.46775 C 684.36701,556.78758 532.48169,535.99507 402.45434,511.93974 272.68667,487.93246 172.00863,462.10892 103.46755,442.52178 35.53258,423.10786 0.18232271,410.59946 0.18232271,410.59946 0.18176279,404.31741 0.1813703,398.0224 0.18115488,391.71369 Z"
         inkscape:original-d="M 0.4441756,371.35837 H 1920.4442 v 18.97615 H 0.4441756 Z" />
      <path
         id="rect5162"
         style="opacity:1;fill:#3c0000;fill-opacity:1;stroke:#a00012;stroke-width:0"
         d="M 0.18690284,444.32007 C 147.66964,492.36499 328.81497,532.22442 527.75384,558.25409 c 198.21697,25.93521 399.15144,36.11991 577.55876,29.56356 179.1519,-6.58371 323.3442,-29.43382 428.9538,-64.16297 105.9411,-34.83813 166.1813,-79.02658 201.9878,-125.82738 34.9931,-45.73751 46.3942,-94.08117 58.4988,-133.16565 12.8507,-41.49329 26.1166,-70.86185 55.0034,-95.25259 27.7563,-23.43616 64.4143,-36.50617 98.6952,-44.79515 33.7004,-8.14864 58.1245,-10.67352 58.1245,-10.67352 0.9744,1.63281 2.0798,3.58268 3.2485,5.78659 1.0726,2.0225 1.9199,3.74255 1.9199,3.74255 -95.3304,10.75826 -145.9787,33.80835 -173.5355,69.99681 -27.489,36.0993 -30.2154,81.7977 -46.9454,132.04923 -16.8308,50.55429 -46.7514,100.30673 -118.5683,145.07288 -71.3367,44.46674 -177.0777,79.11036 -318.5112,101.35731 -140.729,22.13611 -304.73,29.99463 -472.88283,25.82041 C 712.89033,593.58555 553.60102,577.75863 417.38533,557.12094 281.41723,536.52076 177.32462,512.56924 106.39396,493.86178 36.30692,475.37683 0.19073401,462.99972 0.19073401,462.99972 c -0.001421,-6.21543 -0.002701,-12.44173 -0.003831,-18.67965 z"
         inkscape:original-d="M 0.4441756,424.40958 H 1920.4442 v 18.97615 H 0.4441756 Z" />
      <path
         id="rect5164"
         style="opacity:1;fill:#3c0000;fill-opacity:1;stroke:#a00012;stroke-width:0"
         d="M 0.19969083,496.38156 C 149.73196,542.43644 336.16226,577.89525 542.7882,597.85068 c 205.7995,19.87561 415.49905,22.74554 601.3506,9.27158 186.6149,-13.5293 336.0754,-42.40687 443.6506,-81.17239 107.9408,-38.89727 166.5932,-84.81027 198.4829,-131.18888 31.2184,-45.4022 36.3737,-91.00227 42.8923,-126.54512 6.9064,-37.6567 15.3933,-62.93864 40.729,-82.95216 24.2375,-19.14609 59.4877,-28.70445 93.0898,-34.30019 33.1777,-5.52508 57.6949,-6.63266 57.6949,-6.63266 0.9004,2.41085 1.9171,5.26329 2.9834,8.4409 0.9788,2.9168 1.7453,5.36166 1.7453,5.36166 -95.2522,5.08928 -142.6669,21.9293 -165.02,52.0085 -22.3234,30.03917 -18.6366,70.60148 -30.1276,117.56693 -11.5781,47.32146 -38.0104,96.01652 -109.3335,142.22343 -70.8738,45.91582 -179.0191,84.23066 -325.1989,111.65382 -145.502,27.29603 -315.7064,41.2665 -490.17957,42.97134 C 730.71226,626.26581 566.20022,615.61892 425.87198,598.92867 285.79155,582.26789 179.80136,560.87902 107.65191,543.67322 36.521111,526.71034 0.20573338,514.89008 0.20573338,514.89008 c -0.002131,-6.16047 -0.004148,-12.32973 -0.006043,-18.50852 z"
         inkscape:original-d="M 0.4441756,477.46075 H 1920.4442 V 496.4369 H 0.4441756 Z" />
      <path
         id="rect5166"
         style="opacity:1;fill:#3c0000;fill-opacity:1;stroke:#a00012;stroke-width:0"
         d="M 0.21825537,547.99605 C 149.36196,590.54206 338.16794,620.53487 549.48749,633.9411 c 210.42167,13.34927 426.20073,9.11001 617.71071,-10.46569 192.2805,-19.65445 346.3059,-53.17389 456.2755,-94.27825 110.3642,-41.25184 168.9921,-87.00914 199.0646,-131.19142 29.4951,-43.33416 30.9967,-84.58727 34.0128,-115.51802 3.1879,-32.69133 8.3946,-53.28986 31.1906,-68.6621 21.6717,-14.61405 55.7364,-20.76641 88.61,-23.86124 32.5868,-3.06782 56.9887,-2.97672 56.9887,-2.97672 0.7827,3.25179 1.6609,7.07645 2.5715,11.29146 0.8361,3.87035 1.4826,7.08089 1.4826,7.08089 -94.4027,0.20331 -139.258,10.91233 -158.1651,34.25185 -18.6628,23.03784 -11.5641,57.99723 -20.3131,99.42365 -8.9433,42.34623 -34.1984,88.05287 -106.397,133.77568 -71.7772,45.4559 -182.6467,85.78113 -332.8366,117.13189 -149.5468,31.21654 -324.2853,50.56641 -502.98894,57.90793 -179.1505,7.35987 -346.59122,2.11376 -488.95241,-10.14253 C 285.64171,625.4747 179.38717,607.29985 107.18636,592.15198 36.152531,577.24894 0.22605735,566.3684 0.22605735,566.3684 c -0.00269,-6.11716 -0.005294,-12.24103 -0.007802,-18.37235 z"
         inkscape:original-d="M 0.4441756,530.51196 H 1920.4442 v 18.97615 H 0.4441756 Z" />
      <path
         id="rect5168"
         style="opacity:1;fill:#3c0000;fill-opacity:1;stroke:#a00012;stroke-width:0"
         d="M 0.24133292,599.26128 C 146.57234,636.97055 334.83545,660.53045 547.9132,666.96794 c 212.12472,6.4087 431.34908,-4.74077 626.7729,-29.60777 196.1785,-24.96303 354.1113,-61.75266 466.887,-103.47081 113.2031,-41.87623 173.336,-85.5533 203.6236,-125.69825 29.7574,-39.44215 30.1107,-74.73256 31.6108,-99.91042 1.5808,-26.53294 4.9446,-41.88339 26.1091,-52.35452 19.9406,-9.86559 53.0389,-12.77387 85.0547,-13.6166 31.875,-0.83902 55.934,0.19504 55.934,0.19504 0.6215,4.10755 1.3108,8.91761 2.0124,14.17485 0.6444,4.82871 1.1318,8.80226 1.1318,8.80226 -92.6747,-3.74168 -135.5587,0.99623 -152.5996,16.99846 -16.8879,15.85858 -8.4436,42.79938 -17.0329,77.60107 -8.7869,35.60267 -35.0497,76.34979 -109.4376,119.65494 -73.9877,43.07221 -187.8842,83.75665 -341.3833,117.79935 -152.9078,33.91153 -330.5524,57.9245 -511.48531,70.65284 -181.4609,12.76549 -349.55686,13.11009 -491.95978,5.71127 C 281.0437,666.51619 176.15911,652.13011 105.02926,639.52013 35.208523,627.14224 0.25044238,617.53244 0.25044238,617.53244 c -0.003099,-6.08552 -0.006139,-12.17566 -0.009109,-18.27116 z"
         inkscape:original-d="M 0.4441756,583.56317 H 1920.4442 v 18.97615 H 0.4441756 Z" />
      <path
         id="rect5170"
         style="opacity:1;fill:#3c0000;fill-opacity:1;stroke:#a00012;stroke-width:0"
         d="M 0.26765998,650.27502 C 141.49205,682.04519 326.44513,698.35328 538.54329,697.48836 c 211.09428,-0.86082 431.31236,-18.70852 629.02711,-48.07344 198.4155,-29.46901 359.6816,-68.21447 475.6206,-108.86411 116.4138,-40.81613 179.4681,-80.53944 211.8185,-114.84277 31.8287,-33.75005 33.3157,-61.52859 35.0824,-79.83816 1.8538,-19.21278 4.6811,-28.81897 24.9679,-34.17771 18.8126,-4.96935 51.2895,-4.83853 82.176,-3.7417 30.9993,1.10085 54.479,2.79435 54.479,2.79435 0.4168,4.93051 0.8666,10.68174 1.3059,16.92763 0.4036,5.73746 0.6927,10.42783 0.6927,10.42783 -88.1202,-6.4737 -131.4337,-7.59754 -147.8805,0.57899 -16.4468,8.17653 -8.879,25.82116 -19.4549,52.3574 -10.8316,27.17766 -40.0351,61.06456 -117.7916,100.10378 -77.3685,38.84447 -194.5511,78.31053 -350.7229,113.86129 C 1262.2,640.43677 1083.171,668.41523 901.81556,686.26573 719.84432,704.17684 553.23357,710.23764 412.58914,708.03535 272.30731,705.83874 170.33315,695.70791 101.29951,686.02602 33.726357,676.54896 0.27762496,668.47998 0.27762496,668.47998 c -0.003358,-6.06554 -0.006682,-12.13361 -0.009965,-18.20496 z"
         inkscape:original-d="M 0.4441756,636.61438 H 1920.4442 v 18.97615 H 0.4441756 Z" />
      <path
         id="rect5172"
         style="opacity:1;fill:#3c0000;fill-opacity:1;stroke:#a00012;stroke-width:0"
         d="M 0.29597299,701.13501 C 134.37043,726.12476 313.55006,734.55763 522.27217,726.174 c 207.66034,-8.34099 426.73452,-32.64278 625.31973,-65.74071 199.157,-33.19323 363.3382,-72.68729 482.6883,-110.69596 119.9033,-38.18484 187.1307,-72.23444 223.0753,-99.02841 35.3821,-26.37464 40.0054,-45.28233 43.4705,-55.70699 3.5924,-10.80743 8.3672,-14.32388 27.0122,-14.45625 17.179,-0.12197 51.1617,2.98301 79.6797,5.55098 29.1001,2.6204 52.5919,4.7439 52.5919,4.7439 0.3033,10.21689 0.617,31.24603 0.617,31.24603 -84.721,-8.14197 -126.4812,-14.76654 -143.4933,-14.61678 -17.2398,0.15176 -11.9076,7.18897 -26.3846,24.22742 -14.6782,17.27526 -48.3441,42.57345 -130.4528,75.68208 -81.7089,32.94739 -202.3579,69.75381 -360.6632,105.72002 -157.9423,35.88375 -336.9738,67.14617 -517.26134,89.83452 C 697.47318,725.71166 534.2651,737.51422 396.87449,740.74253 259.97135,743.95939 162.26893,738.41171 96.203015,731.9442 31.77312,725.63684 0.30634154,719.30873 0.30634154,719.30873 c -0.003465,-6.05721 -0.006925,-12.11487 -0.0103686,-18.17372 z"
         inkscape:original-d="M 0.4441756,689.66553 H 1920.4442 v 18.97615 H 0.4441756 Z" />
      <path
         id="rect5174"
         style="opacity:1;fill:#3c0000;fill-opacity:1;stroke:#a00012;stroke-width:0"
         d="M 0.32500851,751.93915 C 125.5797,769.60382 296.97355,769.78087 500.41061,753.8111 c 202.29634,-15.88023 418.53604,-46.34124 616.85359,-82.44685 198.5493,-36.14781 365.6122,-75.37152 488.3791,-109.32796 123.4079,-34.13377 196.0861,-61.10493 236.5874,-78.92868 40.3608,-17.76192 49.0012,-26.09453 55.4643,-28.21233 5.879,-1.92643 11.9806,1.4619 31.2499,6.30913 20.7214,5.2125 46.4398,9.82869 77.2245,14.01187 28.632,3.89066 50.2607,5.97737 50.2607,5.97737 -0.223,11.31798 -1.001,34.38745 -1.001,34.38745 -83.1321,-8.8713 -119.7471,-19.72832 -138.8516,-28.14006 -18.4168,-8.10897 -16.8263,-12.01487 -36.2642,-5.97762 -19.188,5.9596 -60.8913,22.07542 -146.0735,47.26695 -86.7602,25.6582 -210.87,58.54772 -370.9359,93.97502 -159.985,35.40938 -337.6858,69.26306 -515.91524,96.49285 -178.99467,27.34671 -337.1487,44.77154 -470.2323,53.54386 -132.35717,8.72444 -224.68224,7.91792 -287.123736,4.83356 -60.587099,-2.99275 -89.69729532,-7.45905 -89.69729532,-7.45905 -0.003422,-6.06054 -0.006865,-12.11945 -0.0103202,-18.17746 z"
         inkscape:original-d="M 0.4441756,742.71674 H 1920.4442 v 18.97615 H 0.4441756 Z" />
      <path
         id="rect5176"
         style="opacity:1;fill:#3c0000;fill-opacity:1;stroke:#a00012;stroke-width:0"
         d="M 0.35350298,802.78514 C 115.61812,812.91196 277.80602,804.74363 474.68589,781.30033 c 195.61543,-23.29274 407.91775,-59.55059 605.18781,-97.98832 195.7833,-38.14806 368.181,-76.72788 493.0584,-105.24548 129.0209,-29.46383 203.5894,-47.20586 251.316,-55.48717 45.9119,-7.96646 59.3415,-5.51111 69.399,1.66043 9.8875,7.0503 17.695,18.12148 36.451,27.4414 19.7574,9.81745 46.1751,16.51607 74.4232,21.35429 27.0997,4.64155 47.4933,6.43942 47.4933,6.43942 -0.8284,12.09714 -2.8556,36.51831 -2.8556,36.51831 -77.7831,-8.00103 -113.2499,-22.97706 -133.2974,-39.48289 -19.6912,-16.21243 -22.2743,-31.45676 -47.1736,-37.16982 -24.9872,-5.7332 -70.8771,-1.25342 -162.963,16.05281 -91.3819,17.17393 -220.3626,45.48664 -381.1976,79.42305 -162.6579,34.32103 -336.62481,69.83002 -513.00413,101.40265 -176.61916,31.61556 -328.23451,54.31969 -456.60864,68.62968 -127.14353,14.17282 -213.30236,18.06049 -271.746453,18.39879 -56.298483,0.32587 -82.80485419,-2.24615 -82.80485419,-2.24615 -0.003228,-6.07554 -0.006505,-12.14735 -0.00982,-18.21619 z"
         inkscape:original-d="M 0.4441756,795.76794 H 1920.4442 v 18.97615 H 0.4441756 Z" />
      <path
         id="rect5178"
         style="opacity:1;fill:#3c0000;fill-opacity:1;stroke:#a00012;stroke-width:0"
         d="M 0.3801929,853.77081 C 105.11609,856.51252 257.39888,840.25156 447.24169,809.65694 c 188.34788,-30.3537 396.38334,-71.97142 592.23771,-112.12088 200.4653,-41.09466 362.4971,-75.19534 497.1689,-99.05765 131.8148,-23.35608 213.7659,-32.44988 265.9893,-29.91754 51.2833,2.48674 69.9399,16.1997 83.2565,32.63616 15.2395,18.80992 19.493,32.31463 41.1481,48.08734 19.3627,14.1031 44.5613,22.16294 70.8411,27.25448 25.3213,4.90583 44.318,6.08565 44.318,6.08565 -1.513,12.46707 -4.9474,37.37725 -4.9474,37.37725 -72.0683,-5.83104 -105.3932,-23.98889 -126.1009,-48.07825 -20.1715,-23.46554 -27.2047,-50.53464 -56.8296,-67.98479 -30.2132,-17.79664 -81.9086,-24.79068 -179.0887,-16.44864 -96.8097,8.31025 -228.5516,30.99895 -391.0288,63.05803 -159.6637,31.50394 -340.94294,70.36618 -509.72771,104.7628 -175.04865,35.67314 -318.08599,62.86305 -442.51843,82.65992 -121.89341,19.39292 -201.43922,27.67785 -255.883282,31.34225 -51.875442,3.49151 -75.68741755,2.74762 -75.68741755,2.74762 -0.002884,-6.10219 -0.005843,-12.19857 -0.008868,-18.28988 z"
         inkscape:original-d="M 0.4441756,848.81915 H 1920.4442 V 867.7953 H 0.4441756 Z" />
      <path
         id="rect5180"
         style="opacity:1;fill:#3c0000;fill-opacity:1;stroke:#a00012;stroke-width:0"
         d="M 0.40381475,904.99391 C 94.850244,900.89857 237.35044,877.19911 420.63815,840.01068 600.16006,803.58632 808.13927,756.37769 1000.9136,715.45121 c 197.1451,-41.85442 365.2594,-74.31039 501.2293,-91.4974 135.209,-17.09083 222.2436,-16.88824 279.1037,-3.70355 55.9732,12.97905 78.8795,37.80969 94.6644,63.14989 17.7659,28.52029 22.7728,47.16336 43.6358,67.21744 18.4793,17.76283 41.8293,26.53108 65.9977,31.35161 23.2955,4.64643 40.7825,4.88266 40.7825,4.88266 -2.277,12.34045 -7.2766,36.70289 -7.2766,36.70289 -65.9978,-2.34711 -96.2445,-22.57675 -116.4604,-53.30003 -19.7535,-30.02038 -29.2036,-67.93732 -62.5865,-96.78159 -34.0857,-29.45151 -90.562,-47.73754 -192.0756,-48.40841 -101.184,-0.66868 -236.0661,16.31742 -399.9344,46.07113 -161.1141,29.25362 -341.28243,69.27639 -507.49079,106.80748 -178.68088,40.34749 -304.41833,69.25544 -430.06992,95.16751 -117.41603,24.21372 -190.17652,36.27631 -241.121479,43.04124 -47.686619,6.33227 -68.90003294,7.24039 -68.90003294,7.24039 -0.002389,-6.1405 -0.00488,-12.27311 -0.007463,-18.39856 z"
         inkscape:original-d="M 0.4441756,901.87036 H 1920.4442 v 18.97615 H 0.4441756 Z" />
      <path
         id="rect5182"
         style="opacity:1;fill:#3c0000;fill-opacity:1;stroke:#a00012;stroke-width:0"
         d="m 0.423105,956.55217 c 85.354118,-9.96897 219.049055,-39.97297 397.428735,-82.9464 176.74295,-42.57913 376.91223,-92.76646 571.92903,-134.9783 196.48533,-42.52971 367.24553,-72.4375 505.83583,-83.42141 138.1721,-10.95076 228.951,-1.80765 288.9224,21.40098 59.0966,22.87007 84.3258,57.98916 100.8972,91.34677 18.6335,37.50838 22.838,59.99266 41.9712,83.62601 16.6167,20.52508 37.543,29.27421 59.3654,33.24772 21.0304,3.82929 36.9548,2.80805 36.9548,2.80805 -1.7417,6.49123 -3.7699,13.78851 -6.0391,21.54951 -2.0759,7.09973 -3.8045,12.68433 -3.8045,12.68433 -59.7838,2.4229 -85.7325,-18.54417 -103.5029,-54.46306 -17.6726,-35.72126 -26.2083,-82.0289 -61.4354,-121.64266 -35.5103,-39.93219 -94.7121,-68.59882 -199.2065,-77.68022 -104.1993,-9.05576 -241.7978,2.48462 -407.3435,29.85074 -163.5245,27.032 -342.36587,67.56195 -507.90321,107.8061 C 549.86906,845.76232 403.04236,884.00307 292.80534,911.36487 177.9777,939.8661 112.22592,954.61342 63.513434,964.1704 19.357136,972.83349 0.42871212,975.09439 0.42871212,975.09439 c -0.001743,-6.19047 -0.003616,-12.37096 -0.005607,-18.54222 z"
         inkscape:original-d="M 0.4441756,954.92151 H 1920.4442 v 18.97615 H 0.4441756 Z" />
      <path
         id="rect5184"
         style="opacity:1;fill:#3c0000;fill-opacity:1;stroke:#a00012;stroke-width:0"
         d="M 0.43680017,1008.5435 C 79.089023,994.08446 205.7332,959.49868 382.27571,911.80106 556.11708,864.83323 756.38352,811.35898 952.45885,768.79024 1150.068,725.8885 1323.4214,698.4643 1464.1196,692.98012 c 140.3902,-5.47217 232.9487,11.52096 293.4769,43.37219 59.6795,31.40469 84.1752,75.21397 98.8754,115.08225 14.6728,39.79415 21.029,74.43262 33.9736,95.93112 13.3012,22.09092 31.152,30.00059 50.3701,32.50781 18.5449,2.41939 32.9225,-0.14966 32.9225,-0.14966 -2.26,5.72735 -4.8696,12.09497 -7.7831,18.81156 -2.6623,6.13731 -4.8656,10.89721 -4.8656,10.89721 -53.7092,8.424 -73.7779,-11.69997 -86.283,-50.82302 -12.4651,-38.99762 -17.0676,-92.43344 -50.005,-140.37401 -33.2297,-48.36588 -91.9948,-85.65044 -197.4221,-101.80061 -105.1806,-16.11239 -244.826,-9.23562 -412.6096,15.9824 -165.9937,24.94901 -346.23166,65.87212 -512.77976,108.06331 -157.87795,39.99481 -320.22346,85.64108 -420.11042,113.4424 -115.79521,32.22903 -173.45075,47.80313 -222.468961,59.87723 -41.761845,10.2868 -58.97045985,13.4641 -58.97045985,13.4641 -9.4698e-4,-6.2521 -0.00205,-12.4922 -0.003299,-18.7209 z"
         inkscape:original-d="M 0.4441756,1007.9727 H 1920.4442 v 18.9762 H 0.4441756 Z" />
      <path
         id="rect5186"
         style="opacity:1;fill:#3c0000;fill-opacity:1;stroke:#a00012;stroke-width:0"
         d="M 0.44363673,1061.0656 C 75.945463,1044.0152 198.52809,1007.0879 377.71921,956.06986 552.82905,906.21378 756.48601,850.54049 956.09794,807.82013 c 201.14366,-43.04817 377.60436,-68.4921 519.45356,-69.76776 141.5549,-1.27301 233.1415,21.67047 290.5654,59.91608 56.6387,37.72263 76.0769,87.75583 85.1659,131.92188 9.0739,44.09317 9.3823,80.97037 17.2247,102.57457 8.0321,22.1267 22.0351,28.2803 38.3912,28.6598 15.8714,0.3682 28.7936,-3.9909 28.7936,-3.9909 -2.8228,4.5354 -6.0641,9.5006 -9.6763,14.6363 -3.2982,4.6894 -6.016,8.2299 -6.016,8.2299 -48.1201,15.5819 -60.3014,-1.8664 -63.7843,-41.5767 -3.4802,-39.67955 1.0235,-97.27154 -24.561,-150.50495 -25.8409,-53.76669 -79.7889,-96.94516 -183.3205,-117.98871 -103.3608,-21.00884 -244.1387,-17.4177 -415.0102,6.24897 -169.162,23.42992 -353.56861,64.57027 -524.14056,107.91904 -164.23057,41.73719 -324.70463,88.00325 -428.3953,117.97155 -120.97167,34.9628 -170.89598,49.4799 -222.970742,63.431 -41.032767,10.993 -57.3732224,14.4999 -57.3732224,14.4999 0,-6.3254 -1.8284e-4,-12.6367 -5.3887e-4,-18.9345 z"
         inkscape:original-d="M 0.4441756,1061.0239 H 1920.4442 v 18.9762 H 0.4441756 Z" />
    </g>
  </g>
</svg>
