<?xml version="1.0" encoding="UTF-8" standalone="no"?>
<!-- Created with Inkscape (http://www.inkscape.org/) -->

<svg
   inkscape:version="1.2.1 (9c6d41e410, 2022-07-14)"
   id="svg542"
   version="1.1"
   viewBox="0 0 1080 1920"
   height="1920"
   width="1080"
   sodipodi:docname="Background-Waves2.svg"
   inkscape:export-filename="Background-WavesV.png"
   inkscape:export-xdpi="96"
   inkscape:export-ydpi="96"
   xmlns:inkscape="http://www.inkscape.org/namespaces/inkscape"
   xmlns:sodipodi="http://sodipodi.sourceforge.net/DTD/sodipodi-0.dtd"
   xmlns="http://www.w3.org/2000/svg"
   xmlns:svg="http://www.w3.org/2000/svg">
  <sodipodi:namedview
     id="namedview544"
     pagecolor="#505050"
     bordercolor="#eeeeee"
     borderopacity="1"
     inkscape:showpageshadow="0"
     inkscape:pageopacity="0"
     inkscape:pagecheckerboard="0"
     inkscape:deskcolor="#505050"
     inkscape:document-units="px"
     showgrid="false"
     inkscape:zoom="0.3472492"
     inkscape:cx="162.70736"
     inkscape:cy="846.65422"
     inkscape:window-width="1920"
     inkscape:window-height="1017"
     inkscape:window-x="-8"
     inkscape:window-y="-8"
     inkscape:window-maximized="1"
     inkscape:current-layer="layer1" />
  <defs
     id="defs539">
    <inkscape:path-effect
       effect="lattice2"
       gridpoint0="0.4441756,-9.4880511"
       gridpoint1="1920.4442,-9.4880511"
       gridpoint2="0.4441756,1080.0001"
       gridpoint3="1920.4442,1080.0001"
       gridpoint4="480.44418,-9.4880511"
       gridpoint5="1349.8461,419.19544"
       gridpoint6="734.56068,792.73797"
       gridpoint7="1544.3005,1033.5962"
       gridpoint8x9="1031.1549,61.222627"
       gridpoint10x11="777.03837,912.06224"
       gridpoint12="0.4441756,262.88399"
       gridpoint13="1920.4442,262.88399"
       gridpoint14="0.4441756,807.62806"
       gridpoint15="1920.4442,807.62806"
       gridpoint16="480.44418,262.88399"
       gridpoint17="1628.2694,540"
       gridpoint18="480.44418,807.62806"
       gridpoint19="1776.3199,728.07855"
       gridpoint20x21="1000.2189,205.43156"
       gridpoint22x23="701.90827,891.59699"
       gridpoint24x26="0.4441756,535.25602"
       gridpoint25x27="1920.4442,535.25602"
       gridpoint28x30="480.44418,535.25602"
       gridpoint29x31="1440.4442,535.25602"
       gridpoint32x33x34x35="381.50051,329.75312"
       id="path-effect10894"
       is_visible="true"
       lpeversion="1"
       horizontal_mirror="false"
       vertical_mirror="false"
       perimetral="false"
       live_update="true" />
  </defs>
  <g
     inkscape:label="Desing"
     inkscape:groupmode="layer"
     id="layer1"
     style="fill:#000000">
    <rect
       style="opacity:1;fill:#00000d;fill-opacity:1;stroke:none;stroke-width:2.08334;stroke-opacity:1"
       id="rect838"
       width="3000"
       height="3000"
       x="-678.20477"
       y="-2045"
       inkscape:label="Background"
       inkscape:export-filename="./rect838.png"
       inkscape:export-xdpi="170.66667"
       inkscape:export-ydpi="170.66667"
       transform="rotate(90)" />
    <g
       id="g10892"
       inkscape:path-effect="#path-effect10894"
       transform="matrix(0,1.0027293,-1.0004698,0,1080.5075,-0.44538739)"
       style="fill:#0a0000;fill-opacity:1">
      <path
         id="path10700"
         style="fill:#0a0000;fill-opacity:1;stroke:#a00012;stroke-width:0"
         d="M 0.4441756,191.23294 C 89.482315,182.28952 168.56891,179.17938 246.54006,185.3245 c 78.68009,6.20099 150.66153,21.25277 234.33296,44.62813 82.30191,22.99275 172.95908,53.3042 275.36351,82.9095 103.5025,29.92276 214.93961,57.82475 333.47997,75.77739 118.7191,17.97971 234.4919,24.34157 343.4125,15.78689 109.1203,-8.57036 200.3761,-31.2632 275.6747,-63.04259 74.7057,-31.52917 126.4744,-68.96628 161.2662,-99.48622 34.29,-30.07976 50.3743,-50.66466 50.3743,-50.66466 0.01,6.32694 0,18.97616 0,18.97616 -66.2448,78.74383 -160.5131,135.38924 -279.7103,168.98793 -118.6112,33.43352 -252.756,41.49177 -388.4759,33.00002 C 1117.0661,403.73834 986.37594,379.3495 871.48541,351.54837 758.59949,324.23232 656.17825,292.37541 576.21582,268.31693 491.40343,242.79923 428.62526,225.05086 365.12569,213.21626 303.35865,201.70456 249.7107,197.71139 196.51123,197.58794 145.17699,197.46883 95.493096,201.12676 59.619101,204.31173 23.022678,207.56085 0.4441756,210.2091 0.4441756,210.2091 Z"
         inkscape:original-d="M 0.4441756,191.23294 H 1920.4442 V 210.2091 H 0.4441756 Z" />
      <path
         id="path10702"
         style="fill:#0a0000;fill-opacity:1;stroke:#a00012;stroke-width:0"
         d="M 0.4441756,258.13994 C 90.440492,246.43341 163.95817,235.62119 224.19784,232.22255 c 62.68487,-3.5366 113.84552,0.44338 180.21751,14.6286 66.85517,14.28849 141.42796,37.1041 244.01118,65.532 101.11768,28.02177 220.07132,58.67586 352.20017,82.66053 132.5672,24.06423 266.2348,39.09096 391.8807,39.36674 126.1065,0.27678 229.7493,-14.34858 312.6218,-40.13521 82.266,-25.59791 134.7081,-59.28483 168.5681,-87.93738 33.122,-28.02795 46.7469,-48.19789 46.7469,-48.19789 0.01,6.32731 0,18.97615 0,18.97615 -58.2448,75.57752 -157.603,124.65376 -291.1679,148.49151 -132.7387,23.69029 -288.3678,20.54317 -443.1867,2.9452 C 1032.1118,411.05043 885.31112,380.09304 765.1003,350.55865 644.51309,320.93178 550.25683,293.00878 478.57932,274.13131 405.50033,254.88474 357.78685,245.3097 311.40412,242.53405 c -44.6044,-2.66923 -85.52906,1.46374 -128.78385,7.41954 -42.93571,5.91187 -87.697151,13.31493 -122.937787,18.60548 -35.739679,5.36548 -59.2383074,8.55702 -59.2383074,8.55702 z"
         inkscape:original-d="M 0.4441756,258.13994 H 1920.4442 v 18.97615 H 0.4441756 Z" />
      <path
         id="path10704"
         style="fill:#0a0000;fill-opacity:1;stroke:#a00012;stroke-width:0"
         d="M 0.4441756,325.04693 C 97.671388,309.67982 153.32372,293.20014 202.46721,279.64284 c 47.09,-12.99081 77.76982,-19.82189 127.15378,-14.80794 49.4863,5.02435 112.94364,21.44414 212.86667,47.3921 98.56029,25.59409 224.69082,58.24863 369.91751,87.5284 145.99593,29.43485 296.95203,52.45333 439.01713,61.30311 142.7008,8.88937 258.6246,2.35029 349.0783,-16.93515 89.7939,-19.14478 143.2772,-48.46353 176.3797,-74.50936 32.1634,-25.30683 43.5639,-44.56707 43.5639,-44.56707 0.01,6.32791 0,18.97615 0,18.97615 -51.0089,70.57233 -155.4911,111.24459 -302.7346,125.12429 -146.2343,13.78456 -322.1505,0.0128 -494.9566,-25.88703 C 951.2447,417.55498 789.07077,380.93757 664.1433,350.40552 538.22475,319.63125 447.76202,294.87631 386.34788,281.99753 c -62.16729,-13.03672 -94.94956,-14.38394 -125.42899,-8.58349 -27.02691,5.14341 -58.59464,18.38623 -91.17048,29.45206 -37.09546,12.60114 -72.077715,21.94323 -109.914278,29.99011 -34.968568,7.43693 -59.3899564,11.16687 -59.3899564,11.16687 z"
         inkscape:original-d="M 0.4441756,325.04693 H 1920.4442 v 18.97615 H 0.4441756 Z" />
      <path
         id="path10706"
         style="fill:#0a0000;fill-opacity:1;stroke:#a00012;stroke-width:0"
         d="M 0.4441756,391.95392 C 99.000732,373.76954 149.96588,350.50478 184.30138,328.47053 c 33.70673,-21.63074 46.54579,-38.25436 81.16957,-41.77327 34.55896,-3.51232 87.87517,6.63797 185.59902,29.8743 96.07719,22.8448 228.70669,56.7544 385.07714,90.26621 157.69697,33.79611 323.43609,63.63345 479.82909,80.25301 157.0896,16.69358 283.6427,17.76291 380.6557,5.02661 96.2787,-12.63988 150.6763,-37.21164 183.0666,-60.12969 31.2581,-22.11699 40.7457,-40.03378 40.7457,-40.03378 0.01,6.32869 0,18.97615 0,18.97615 -44.6957,64.07924 -153.3465,96.01806 -311.9462,100.38326 -157.4677,4.33405 -350.3119,-18.83095 -538.1735,-51.74987 C 884.49842,427.00123 708.80077,385.86575 580.31677,355.09822 446.05932,322.94816 365.22656,302.79317 310.02167,295.23419 c -53.13336,-7.27534 -73.03079,-0.99191 -90.37986,12.42477 -17.04381,13.18061 -32.63758,32.36083 -59.91756,49.20385 -28.73039,17.73853 -63.408435,30.54737 -99.494107,40.38552 -34.464646,9.39621 -59.7859674,13.68174 -59.7859674,13.68174 z"
         inkscape:original-d="M 0.4441756,391.95392 H 1920.4442 v 18.97615 H 0.4441756 Z" />
      <path
         id="path10708"
         style="fill:#0a0000;fill-opacity:1;stroke:#a00012;stroke-width:0"
         d="M 0.4441756,458.86091 C 101.39921,437.70483 147.76544,408.76469 171.93163,379.33452 c 23.42909,-28.53252 23.86576,-54.17265 46.80997,-64.88551 23.34484,-10.89992 68.87434,-6.40238 164.95458,14.03562 93.94668,19.98415 233.47134,54.73312 396.47277,90.88285 166.69217,36.96825 343.22985,72.10378 510.53045,95.30175 167.9011,23.28123 302.275,31.10507 404.0581,24.6068 100.9587,-6.44564 155.8039,-26.11414 187.4329,-45.57 30.3073,-18.64284 38.2538,-34.84512 38.2538,-34.84512 0.01,6.32962 0,18.97615 0,18.97615 -39.4541,56.44249 -150.6228,79.73977 -317.0604,75.50914 C 1438.1317,549.14571 1233.3156,518.26791 1034.676,479.9234 839.51364,442.25012 652.33389,397.72304 522.19575,367.53594 385.53759,335.83644 305.35555,318.47452 257.32189,316.1735 c -46.72934,-2.23854 -57.22884,10.58797 -65.34945,30.33995 -9.02475,21.95114 -13.19384,42.29273 -38.07605,65.7972 C 130.3867,434.51859 96.600975,450.16762 60.985698,461.76613 26.617533,472.9585 0.4441756,477.83706 0.4441756,477.83706 Z"
         inkscape:original-d="M 0.4441756,458.86091 H 1920.4442 v 18.97615 H 0.4441756 Z" />
      <path
         id="path10710"
         style="fill:#0a0000;fill-opacity:1;stroke:#a00012;stroke-width:0"
         d="M 0.4441756,525.76789 C 103.96944,501.61348 148.19677,467.98652 166.86727,432.60743 c 18.13562,-34.36553 10.64589,-66.72681 27.13731,-83.28907 16.77315,-16.84521 57.63862,-17.09692 152.75711,0.60556 93.91191,17.47792 232.61461,51.00738 403.24645,89.51086 172.35263,38.89179 354.60656,77.59999 528.54186,105.963 174.2102,28.40784 312.8196,41.88075 417.0814,41.04985 103.332,-0.8235 157.9531,-15.62501 188.7225,-31.44609 29.2697,-15.04987 36.0903,-29.23365 36.0903,-29.23365 0,6.33065 0,18.97615 0,18.97615 -35.4289,48.00304 -147.0519,63.08116 -317.0567,51.48641 C 1434.5424,584.7148 1223.7444,548.05316 1019.4747,506.0188 823.19938,465.62951 622.52827,417.86247 495.22794,389.50773 357.18074,358.75924 277.58036,344.21603 233.19079,346.1612 c -43.40427,1.90199 -48.95931,19.86819 -52.45276,44.50284 -3.80161,26.80775 -5.3485,51.78095 -27.60463,78.74213 -21.29794,25.80043 -55.055005,43.80945 -90.958328,57.01958 -34.775234,12.79506 -61.7308964,18.31829 -61.7308964,18.31829 z"
         inkscape:original-d="M 0.4441756,525.76789 H 1920.4442 v 18.97615 H 0.4441756 Z" />
      <path
         id="path10712"
         style="fill:#0a0000;fill-opacity:1;stroke:#a00012;stroke-width:0"
         d="M 0.4441756,592.67488 C 106.60647,565.50972 151.66726,528.19303 169.89569,488.40565 c 17.72081,-38.67941 8.6583,-75.78981 23.73117,-96.65471 15.32557,-21.21471 55.01605,-25.16626 149.90769,-10.01388 93.52638,14.93437 233.16407,47.38671 404.88861,86.40644 174.45763,39.64076 356.51194,80.1077 532.49054,112.17877 175.5423,31.99156 314.3973,49.88321 418.6142,53.98789 103.1605,4.06306 156.8058,-6.06419 186.618,-18.21786 28.1617,-11.48082 34.2983,-23.41742 34.2983,-23.41742 0,6.33174 0,18.97615 0,18.97615 -32.7636,39.10014 -142.6417,46.61793 -311.6368,29.04326 -167.9512,-17.46611 -378.265,-57.9333 -582.6243,-101.94851 C 823.9192,495.18185 636.93941,450.42769 501.73374,421.69262 363.78648,392.37488 283.93922,380.39043 239.7916,385.55664 c -43.32288,5.06971 -48.84181,26.64957 -52.59799,54.68256 -4.07132,30.385 -6.19213,58.20401 -29.36974,87.93636 -22.20343,28.48267 -57.10635,48.39856 -93.99224,63.05328 -35.733246,14.19678 -63.3874544,20.42219 -63.3874544,20.42219 z"
         inkscape:original-d="M 0.4441756,592.67488 H 1920.4442 v 18.97615 H 0.4441756 Z" />
      <path
         id="path10714"
         style="fill:#0a0000;fill-opacity:1;stroke:#a00012;stroke-width:0"
         d="M 0.4441756,659.58187 C 109.28552,629.39576 158.22961,589.32151 181.08231,546.58926 c 22.22117,-41.55135 17.9812,-81.52521 36.68841,-105.17945 19.01383,-24.04194 61.0278,-30.62434 156.38478,-17.74822 93.9185,12.68189 232.31471,43.49868 401.23806,81.94947 173.43731,39.47827 348.32094,79.80684 522.21054,114.31938 171.8785,34.11337 306.9464,55.19482 408.6372,63.44077 100.4723,8.14715 152.4315,2.38372 181.2408,-6.1894 27.0554,-8.05117 32.9621,-17.59994 32.9621,-17.59994 0,6.33284 0,18.97615 0,18.97615 -31.6015,30.07198 -137.6749,30.82942 -301.2241,8.65166 C 1456.4923,665.14332 1253.0586,622.70246 1054.0592,578.21784 849.69537,532.53406 680.3254,491.82977 540.90621,463.65952 404.6794,436.13431 323.61745,426.33226 276.50862,433.73272 c -46.36733,7.28398 -56.69833,31.02041 -65.4867,61.07654 -9.56045,32.69665 -15.72662,61.86083 -43.14557,93.66535 -26.14772,30.32996 -63.40175,51.74141 -101.928526,67.68791 -37.23749,15.41285 -65.5036484,22.3955 -65.5036484,22.3955 z"
         inkscape:original-d="M 0.4441756,659.58187 H 1920.4442 v 18.97615 H 0.4441756 Z" />
      <path
         id="path10716"
         style="fill:#0a0000;fill-opacity:1;stroke:#a00012;stroke-width:0"
         d="M 0.4441756,726.48886 C 112.00479,693.26947 167.63898,651.21619 199.77061,606.76211 c 31.2353,-43.21401 37.67926,-84.45636 64.62316,-109.58669 27.37241,-25.52999 74.87532,-33.77583 171.24417,-22.85043 94.90942,10.75995 230.04394,39.59351 392.48199,76.64346 172.18647,39.27342 328.02417,76.65484 498.74267,113.1835 163.6658,35.01959 291.212,58.1845 388.223,69.81603 95.5646,11.45811 145.2849,9.66989 173.1522,4.4911 26.0723,-4.8452 32.2064,-11.97022 32.2064,-11.97022 0,6.33393 0,18.97615 0,18.97615 -32.0878,21.25575 -132.7064,16.09852 -286.9641,-9.47268 C 1479.6793,710.49686 1288.9369,667.58163 1100.156,623.76597 909.1914,579.44348 742.2457,539.50776 608.8111,513.86728 475.88873,488.32524 392.76967,480.29381 339.94715,489.0759 c -52.12634,8.66635 -71.56405,33.35032 -89.61371,64.3106 -19.88135,34.10213 -32.79494,63.15652 -67.61402,96.60221 C 149.906,681.50783 109.24044,704.07432 68.475201,721.19937 29.244617,737.67973 0.4441756,745.46501 0.4441756,745.46501 Z"
         inkscape:original-d="M 0.4441756,726.48886 H 1920.4442 v 18.97615 H 0.4441756 Z" />
      <path
         id="path10718"
         style="fill:#0a0000;fill-opacity:1;stroke:#a00012;stroke-width:0"
         d="M 0.4441756,793.39585 C 114.77734,757.12437 179.36118,713.62815 224.58213,668.27177 c 43.92391,-44.05547 65.80362,-85.46633 104.66678,-111.1261 39.45794,-26.05247 94.9411,-35.21532 192.61903,-25.90104 96.25136,9.17825 226.32676,35.92593 379.15596,71.1156 141.4082,32.55993 322.9261,77.43822 464.3343,109.99815 151.8415,35.12968 268.7224,59.49994 359.5369,73.90893 89.0062,14.12205 136.2014,15.88066 163.3518,13.83128 25.3755,-1.91541 32.1973,-6.70274 32.1973,-6.70274 0,6.33496 0,18.97615 0,18.97615 -34.3738,12.98676 -128.56,2.71256 -270.7239,-25.37031 C 1507.3999,758.88791 1334.1714,716.51217 1159.3222,673.93854 983.93028,631.23275 826.2615,593.18735 698.38682,569.66467 570.18536,546.08188 484.48273,539.43536 423.93351,548.98622 c -59.88346,9.44585 -91.69909,34.28486 -122.26714,65.43883 -34.81064,35.47788 -54.8026,62.43116 -100.36476,97.80783 -41.6374,32.32929 -86.46795,55.8084 -129.977214,74.0646 C 29.720195,803.75432 0.4441756,812.372 0.4441756,812.372 Z"
         inkscape:original-d="M 0.4441756,793.39585 H 1920.4442 V 812.372 H 0.4441756 Z" />
      <path
         id="path10720"
         style="fill:#0a0000;fill-opacity:1;stroke:#a00012;stroke-width:0"
         d="M 0.4441756,860.30284 C 117.63404,820.94726 192.56966,776.2178 253.41644,730.20955 c 59.93731,-45.32056 98.44374,-85.3375 152.46793,-111.57368 53.85383,-26.15344 118.78388,-35.82722 217.71986,-27.80806 97.60413,7.9112 221.1592,32.76058 362.14393,66.11674 132.59044,31.37013 296.45874,74.38725 422.43964,106.41868 137.8797,35.05677 241.7421,60.04706 325.8363,76.9024 81.644,16.36423 126.3923,21.23524 153.2786,21.99466 25.1598,0.71066 33.1415,-1.95745 33.1415,-1.95745 0,6.33588 0,18.97615 0,18.97615 -38.6211,5.59598 -126.3235,-9.13426 -255.0929,-39.33804 C 1535.1385,809.39863 1383.3588,768.09693 1224.2018,726.50139 1066.3065,685.23562 921.21445,649.08826 799.44447,627.29036 677.09103,605.38802 588.76661,599.82211 519.51507,609.8773 c -68.60889,9.96189 -114.59669,34.74263 -159.52841,65.94371 -44.54435,30.9321 -88.42094,67.08293 -137.8952,98.73075 C 170.27554,807.6975 121.00575,831.96461 74.365133,851.40038 30.163649,869.81973 0.4441756,879.27899 0.4441756,879.27899 Z"
         inkscape:original-d="M 0.4441756,860.30284 H 1920.4442 v 18.97615 H 0.4441756 Z" />
      <path
         id="path10722"
         style="fill:#0a0000;fill-opacity:1;stroke:#a00012;stroke-width:0"
         d="M 0.4441756,927.20983 C 120.62313,884.71685 206.14596,838.55614 283.45119,791.4105 c 75.78894,-46.22091 133.48145,-86.67247 202.19249,-113.23175 68.67953,-26.5471 143.12953,-36.78618 242.83455,-29.80701 98.52911,6.89685 214.5643,30.37313 342.67817,62.5214 123.8257,31.07221 262.7817,71.4414 377.7196,104.52876 123.7734,35.63087 213.2898,60.96682 291.4708,80.36712 74.5967,18.51089 117.4508,26.08379 144.8107,29.30061 25.6491,3.01566 35.2867,2.1202 35.2867,2.1202 0.01,6.33665 0,18.97615 0,18.97615 -44.9866,-0.58955 -127.3639,-19.34122 -243.3822,-51.92893 C 1563.2897,862.30024 1423.2601,818.62601 1285.2339,778.43778 1145.0553,737.62285 1013.8992,702.56773 898.66784,681.87296 782.88017,661.07828 692.55252,656.42288 614.9602,667.17632 538.00552,677.84139 477.97218,703.0908 418.688,734.91234 359.91272,766.46072 302.21236,803.40851 243.07752,836.11959 180.78669,870.57645 127.42732,895.65051 77.426229,916.43712 30.607482,935.90074 0.4441756,946.18598 0.4441756,946.18598 Z"
         inkscape:original-d="M 0.4441756,927.20983 H 1920.4442 v 18.97615 H 0.4441756 Z" />
      <path
         id="path10724"
         style="fill:#0a0000;fill-opacity:1;stroke:#a00012;stroke-width:0"
         d="M 0.4441756,994.11682 C 123.7356,948.43016 218.75436,900.09845 311.14207,850.4534 c 90.16278,-48.44948 165.0299,-90.84734 246.5236,-118.92894 81.59769,-28.11743 163.86387,-39.5574 263.32833,-33.46091 98.47896,6.03609 206.6025,29.0511 322.3395,61.32775 112.7457,31.44244 233.4275,72.07442 336.0416,106.84041 111.2386,37.688 187.9347,63.84611 261.8822,86.26144 69.1834,20.97121 111.4233,30.92553 140.2655,36.22437 27.1062,4.97991 38.9214,5.3993 38.9214,5.3993 0.01,6.33728 0,18.97628 0,18.97628 -53.5488,-5.2243 -133.4011,-27.92355 -239.625,-63.95231 C 1569.7737,911.47664 1441.6989,863.61265 1330.6534,825.9485 1206.0649,783.57344 1088.2515,747.94941 979.6135,727.43107 870.58567,706.8391 779.68743,703.10936 695.75844,715.3241 c -83.25362,12.11645 -154.84329,39.26429 -226.16658,73.15491 -70.72687,33.60724 -140.2955,72.7531 -207.82354,107.46135 -71.567,36.78421 -128.2628,62.99335 -181.472726,85.38196 -49.205701,20.70378 -79.8514184,31.77078 -79.8514184,31.77078 z"
         inkscape:original-d="M 0.4441756,994.11682 H 1920.4442 v 18.97628 H 0.4441756 Z" />
      <path
         id="path10726"
         style="fill:#0a0000;fill-opacity:1;stroke:#a00012;stroke-width:0"
         d="M 0.4441756,1061.0239 C 126.61553,1012.2196 229.13153,960.06731 332.22282,905.66084 432.68225,852.64334 519.31536,805.47593 608.88457,773.64061 c 89.80406,-31.91878 176.04263,-45.89609 273.64379,-40.66028 96.78242,5.19188 197.38664,29.09453 303.05694,63.65762 103.0887,33.71871 210.9446,77.79219 304.48,116.29401 101.1867,41.65127 172.3229,71.1366 243.6045,96.93144 66.908,24.2122 110.8245,36.4339 142.3991,43.397 29.8476,6.5824 44.3753,7.7635 44.3753,7.7635 0.01,6.3376 0,18.9762 0,18.9762 -64.3544,-7.938 -146.4615,-35.0186 -248.5761,-76.4737 -99.9875,-40.59153 -213.2139,-92.6771 -325.3782,-139.07493 -113.9845,-47.15081 -221.2718,-85.95476 -323.7797,-107.57853 -102.6959,-21.66343 -191.79286,-24.21836 -278.09032,-9.09816 -85.52332,14.98455 -163.36754,46.53184 -241.67268,84.96783 -77.69311,38.13558 -154.71605,81.83514 -227.75488,120.10471 -77.30729,40.50607 -137.21328,69.00618 -192.472106,93.10838 -51.063988,22.2726 -82.2760384,34.0444 -82.2760384,34.0444 z"
         inkscape:original-d="M 0.4441756,1061.0239 H 1920.4442 v 18.9762 H 0.4441756 Z" />
      <path
         id="path10850"
         style="fill:#0a0000;fill-opacity:1;stroke:#a00012;stroke-width:0"
         d="M 0.4441756,-9.4880511 C 82.119416,-9.4867752 173.00533,5.8817956 276.87476,35.068274 c 104.22148,29.2854 209.39365,68.848686 320.47036,111.027816 110.37486,41.91261 216.03287,82.20565 320.13756,111.70991 104.26962,29.551 199.19742,45.97171 292.07412,46.03904 92.5249,0.0671 176.6064,-16.19422 258.0471,-44.95826 80.5172,-28.43791 155.3924,-68.16111 222.156,-108.88334 65.0317,-39.66591 125.5515,-82.424163 165.3518,-111.244784 41.4013,-29.9799615 65.3325,-48.2467071 65.3325,-48.2467071 0.012,6.3278285 0,18.97616 0,18.97616 C 1827.7246,82.930976 1733.4626,151.2739 1638.9814,203.92695 c -95.3816,53.15491 -188.0039,88.79029 -285.0625,105.13715 -97.0568,16.34654 -193.2007,12.50583 -294.6428,-6.27064 C 958.65296,284.16858 856.56627,251.47192 754.8692,215.20209 653.57527,179.07604 553.91422,140.21612 462.40638,108.23738 368.13059,75.291338 290.44143,52.006563 218.81258,35.84313 148.77491,20.038753 96.075712,13.788285 57.783984,11.198601 20.56026,8.6811478 0.4441756,9.4881089 0.4441756,9.4881089 Z"
         inkscape:original-d="M 0.4441756,-9.4880511 H 1920.4442 v 18.97616 H 0.4441756 Z" />
      <path
         id="path10852"
         style="fill:#0a0000;fill-opacity:1;stroke:#a00012;stroke-width:0"
         d="M 0.4441756,57.418948 C 84.654052,54.422757 175.57257,64.789296 277.63661,88.273181 c 102.38254,23.557169 205.05372,57.618179 314.19405,96.051739 108.23049,38.11316 214.06771,77.29855 319.40234,108.20173 105.7346,31.02052 204.1805,51.61929 300.9912,57.04271 96.5987,5.41153 184.5607,-4.78075 268.4862,-28.78946 83.4052,-23.85989 157.762,-60.01138 223.3228,-99.9169 64.5856,-39.31195 119.249,-81.54647 156.9257,-112.45708 38.147,-31.296418 59.4853,-50.986972 59.4853,-50.986972 0.012,6.328436 0,18.97616 0,18.97616 -83.7563,78.070802 -173.5698,145.011852 -270.5887,194.099212 -97.1961,49.1771 -196.2585,77.77843 -300.0948,87.15859 -103.702,9.36803 -206.8536,-0.87185 -311.6667,-23.20268 C 934.26418,312.3289 830.81284,278.71316 731.80839,244.63702 625.48469,208.04168 544.83704,178.43475 450.52931,149.2659 361.23355,121.64723 286.58554,103.25751 217.63601,91.496001 150.10639,79.976705 97.341009,76.518055 58.92822,75.712999 21.298757,74.924361 0.4441756,76.395108 0.4441756,76.395108 Z"
         inkscape:original-d="M 0.4441756,57.418948 H 1920.4442 v 18.97616 H 0.4441756 Z" />
      <path
         id="path10854"
         style="fill:#0a0000;fill-opacity:1;stroke:#a00012;stroke-width:0"
         d="M 0.4441756,124.32595 C 87.151349,118.34294 173.40089,122.3532 265.81868,137.80727 c 92.81584,15.52065 183.10319,40.97273 281.98958,72.75613 97.22334,31.24887 198.32048,67.14834 302.33199,97.81258 105.24133,31.02681 209.54225,55.52379 315.65975,67.11741 106.0814,11.58967 205.6901,9.27096 299.8123,-7.66506 93.9921,-16.9126 174.7017,-47.03684 243.7174,-83.73862 68.3465,-36.34588 120.5127,-76.68922 156.5479,-108.07252 35.878,-31.24649 54.5666,-51.69124 54.5666,-51.69124 0.01,6.32683 0,18.97615 0,18.97615 -74.8275,79.70594 -165.3494,142.51166 -271.5478,184.86033 -105.9252,42.23972 -220.1161,61.23183 -337.9194,62.0043 -117.5014,0.77049 -232.9655,-16.53565 -342.50802,-41.91136 C 860.13869,323.16046 757.19374,290.03598 665.97823,260.24933 569.85206,228.85909 494.49841,203.88167 414.53954,183.09985 337.0697,162.96494 271.33623,151.27804 209.11269,145.06144 148.29213,138.98501 97.065532,138.87741 59.446985,140.05445 22.131447,141.22201 0.4441756,143.3021 0.4441756,143.3021 Z"
         inkscape:original-d="M 0.4441756,124.32595 H 1920.4442 V 143.3021 H 0.4441756 Z" />
    </g>
  </g>
</svg>
